<svg width="1415" height="6072" viewBox="0 0 1415 6072" fill="none" xmlns="http://www.w3.org/2000/svg">
<g clip-path="url(#clip0_382_209)">
<rect width="1415" height="6072" fill="#041723"/>
<path d="M1725.04 2807.79C1563.38 2735.66 1255.85 2506.99 1319.04 2169.33C1382.24 1831.67 1025.35 1525.38 839.006 1414.44C650.134 1352.57 303.081 1136.02 425.839 764.704C548.597 393.387 197.779 219.665 7.02457 179.218" stroke="#5DFFDA" stroke-width="2"/>
<path d="M1783.51 2897.3C1584.28 2844.85 1222.22 2640.65 1367.75 2243.49C1513.27 1846.33 1100.67 1562.65 876.175 1470.46C639.283 1434.76 223.017 1251.71 453.08 805.113C683.143 358.513 254.006 225.059 10.6792 214.157" stroke="#FF8EF1" stroke-width="2"/>
<path d="M-215.535 5512.46C-219.257 5340.73 -144.136 4980.83 186.124 4915.11C516.383 4849.39 640.333 4416.87 661.025 4208.83C636.54 4016.33 684.009 3625.25 1069.77 3600.93C1455.53 3576.62 1462.91 3197.7 1418.38 3011.28" stroke="#5DFFDA" stroke-width="2"/>
<path d="M-206.241 5504.66C-242.669 5308 -211.943 4911.13 202.385 4896.95C616.714 4882.77 697.116 4412.02 685.526 4178.41C618.464 3954.23 607.745 3516.69 1101.36 3559.97C1594.98 3603.26 1534.74 3172.21 1442.91 2951.28" stroke="#FF8EF1" stroke-width="2"/>
</g>
<defs>
<clipPath id="clip0_382_209">
<rect width="1415" height="6072" fill="white"/>
</clipPath>
</defs>
</svg>
